<svg xmlns="http://www.w3.org/2000/svg" viewBox="0 0 512 512">
  <rect width="512" height="512" rx="96" fill="#0f172a"/>
  <g fill="none" stroke="#38bdf8" stroke-width="20" stroke-linecap="round" stroke-linejoin="round">
    <path d="M256 96 c-20 0 -32 14 -32 30 v22 h64 v-22 c0 -16 -12 -30 -32 -30z" fill="#38bdf8"/>
    <rect x="240" y="148" width="32" height="40" fill="#1e293b" stroke="#38bdf8"/>
    <path d="M176 200 h160 a32 32 0 0 1 32 32 v160 a32 32 0 0 1 -32 32 h-160 a32 32 0 0 1 -32 -32 v-160 a32 32 0 0 1 32 -32 z" fill="#1e3a8a" stroke="#38bdf8"/>
    <path d="M176 280 h160" stroke="#7dd3fc"/>
    <path d="M176 320 h160" stroke="#7dd3fc"/>
    <path d="M176 360 h160" stroke="#7dd3fc"/>
  </g>
</svg>
